<?xml version="1.0" standalone="no"?><!DOCTYPE svg PUBLIC "-//W3C//DTD SVG 1.1//EN" "http://www.w3.org/Graphics/SVG/1.1/DTD/svg11.dtd"><svg t="1609844667137" class="icon" viewBox="0 0 1024 1024" version="1.1" xmlns="http://www.w3.org/2000/svg" p-id="6058" xmlns:xlink="http://www.w3.org/1999/xlink" width="200" height="200"><defs><style type="text/css"></style></defs><path d="M514.162246 64.443731c-246.201331 0-446.51045 200.783932-446.51045 447.571618 0 246.772336 201.037712 447.539896 448.157973 447.539896 50.29857 0 99.615788-8.224312 146.523121-24.436552 18.414395-6.370081 31.060413-12.423961 31.472805-12.630668 7.194866-3.217275 12.614296-9.049097 15.213493-16.401552 2.63092-7.305383 2.155083-15.133675-1.299599-22.043039l-2.883677-5.831822c-7.131421-14.262842-24.974811-20.569478-40.156582-13.850449-0.031722 0.031722-5.8001 3.02694-20.094664 8.082072-41.075511 14.627139-84.21196 22.059412-128.235616 22.059412-210.92592 0-382.487298-171.57775-382.487298-382.487298S305.423131 129.512702 516.349051 129.512702c210.894198 0 382.455575 171.5931 382.455575 382.423853-0.887206 51.868321-13.882172 100.486622-36.606733 136.855948-20.664645 33.104979-46.939055 51.994188-72.199369 51.994188-0.317225 0-0.601704 0-0.887206 0-45.829791-0.792039-75.433016-68.586075-75.433016-172.718737l0-185.269587c0-5.53097-1.426489-9.635451-4.373611-12.550851-4.944616-4.944616-12.360516-4.817726-21.267373-4.864798l-2.472308 0.016373-9.223059-0.016373c-7.701402 0.031722-13.469779-0.063445-17.495466 3.945869-3.645017 3.613294-4.119831 9.096169-4.119831 13.469779l0 31.060413c-45.196365-36.100196-80.440054-59.474556-131.9758-60.378136-1.045819-0.016373-2.059915-0.031722-3.074012-0.031722-108.74368 0-198.470237 99.218746-200.657043 222.779899-2.155083 124.701117 84.845387 227.723491 193.969737 229.625818 1.045819 0.01535 2.059915 0.031722 3.074012 0.031722 63.293535 0 122.276904-34.087353 159.992901-92.103698 24.373107 60.251246 61.519122 91.216491 110.48637 92.071975 0.697895 0.01535 1.394766 0.01535 2.060939 0.01535 33.945113 0 66.716494-14.610766 94.924953-42.328038 47.63695-46.796816 76.066443-124.796284 76.066443-208.643947l0-2.883677C959.595154 265.227664 759.761873 64.443731 514.162246 64.443731zM646.73975 541.348422c0 92.230588-58.475809 167.282934-130.390699 167.282934s-130.390699-75.052347-130.390699-167.282934c0-92.246961 58.475809-167.298284 130.390699-167.298284S646.73975 449.102485 646.73975 541.348422z" p-id="6059"></path></svg>