<?xml version="1.0" standalone="no"?><!DOCTYPE svg PUBLIC "-//W3C//DTD SVG 1.1//EN" "http://www.w3.org/Graphics/SVG/1.1/DTD/svg11.dtd"><svg t="1609072607911" class="icon" viewBox="0 0 1024 1024" version="1.1" xmlns="http://www.w3.org/2000/svg" p-id="8235" xmlns:xlink="http://www.w3.org/1999/xlink" width="200" height="200"><defs><style type="text/css"></style></defs><path d="M1006.098869 210.196245L640.900989 104.404761c-2.248798-0.653088-4.567259-0.979631-6.900959-0.979631H390.013032c-2.338054 0-4.663045 0.326544-6.903136 0.979631L17.903308 210.196245A24.810798 24.810798 0 0 0 0 234.020881v211.59603c0 7.643302 3.524496 14.875159 9.56991 19.573035a24.72372 24.72372 0 0 0 21.305895 4.482358l160.986094-40.600279v466.696401c0 13.699601 11.10902 24.806444 24.808621 24.806444h590.672021c13.699601 0 24.808621-11.106843 24.808622-24.806444V429.069848l160.970855 40.600279c7.423429 1.8896 15.284427 0.217696 21.318956-4.482358s9.559026-11.929734 9.559026-19.573035v-211.59603c0-11.045888-7.292812-20.746416-17.901131-23.822459zM616.593068 153.035841c-7.20791 51.345747-51.297854 91.014288-104.59198 91.014289-53.296302 0-97.38407-39.668541-104.591979-91.014289h209.183959z m357.796221 260.736518l-160.97521-40.600279a24.791205 24.791205 0 0 0-21.318956 4.482358 24.821683 24.821683 0 0 0-9.559026 19.573035v473.736686H241.476964V397.225296c0-7.643302-3.524496-14.875159-9.56991-19.573035a24.765082 24.765082 0 0 0-21.305895-4.482358l-160.988271 40.600279v-161.110181l309.197795-89.573142c11.931911 73.896862 75.982389 130.573982 153.188229 130.573982 77.216724 0 141.254141-56.677119 153.190405-130.573982l309.199972 89.575319v161.110181z" p-id="8236" fill="#ffffff"></path></svg>