<?xml version="1.0" standalone="no"?><!DOCTYPE svg PUBLIC "-//W3C//DTD SVG 1.1//EN" "http://www.w3.org/Graphics/SVG/1.1/DTD/svg11.dtd"><svg t="1609316970650" class="icon" viewBox="0 0 1024 1024" version="1.1" xmlns="http://www.w3.org/2000/svg" p-id="11254" xmlns:xlink="http://www.w3.org/1999/xlink" width="200" height="200"><defs><style type="text/css"></style></defs><path d="M800.621906 823.643141l-21.010765 179.067309c-2.417927 20.612691-28.827476 27.610471-41.135581 10.900775l-156.669319-212.689089c-7.492356-10.171644-5.321047-24.49156 4.850597-31.983916s24.49156-5.321047 31.983916 4.851937l122.288921 166.01399 16.842388-143.543623c1.440838-12.283979 12.384503-21.197068 24.70467-20.123477l154.062408 13.433969-139.218429-150.806786c-8.569969-9.283016-7.992293-23.754387 1.290723-32.324356 9.283016-8.569969 23.754387-7.990953 32.324356 1.292063l179.320628 194.246367c14.177843 15.357319 2.029236 40.119623-18.793885 38.303497l-190.840628-16.63866zM35.640293 862.862073C15.228649 866.824042 0.546848 843.702283 12.813403 826.913508L156.722932 629.919497c7.452147-10.201131 21.764021-12.430073 31.965152-4.976586 10.199791 7.452147 12.428733 21.762681 4.976586 31.963812L84.126157 806.850346l152.648377-29.626304c12.143246-2.356272 23.958115 5.363937 26.674932 17.429445l33.02266 146.631707 106.814994-154.607917c7.180063-10.394136 21.427602-12.998366 31.821739-5.816963 10.394136 7.180063 12.998366 21.427602 5.816963 31.821738L304.445654 1010.233634c-11.329675 16.400084-36.755435 11.469068-41.135581-7.97621l-39.612984-175.892105-188.055455 36.496754zM485.577047 778.45445c202.132775 0 365.99556-163.861445 365.99556-365.99556 0-202.132775-163.861445-365.99422-365.99556-365.99422-202.132775 0-365.99556 163.861445-365.99556 365.99422 0 202.132775 163.862785 365.99556 365.99556 365.99556z m0 45.748943c-227.400377 0-411.744503-184.344126-411.744502-411.744503 0-227.400377 184.344126-411.744503 411.744502-411.744503 227.400377 0 411.744503 184.344126 411.744503 411.744503 0 227.400377-184.344126 411.744503-411.744503 411.744503zM362.28423 452.490052c-12.632461 0-22.873801-10.24134-22.873801-22.875141 0-12.632461 10.24-22.873801 22.873801-22.873801h274.496335c12.633801 0 22.875141 10.24 22.875142 22.873801 0 12.633801-10.24134 22.875141-22.875142 22.875141h-274.496335z" p-id="11255"></path></svg>