<?xml version="1.0" standalone="no"?><!DOCTYPE svg PUBLIC "-//W3C//DTD SVG 1.1//EN" "http://www.w3.org/Graphics/SVG/1.1/DTD/svg11.dtd"><svg t="1609381962831" class="icon" viewBox="0 0 1024 1024" version="1.1" xmlns="http://www.w3.org/2000/svg" p-id="36056" xmlns:xlink="http://www.w3.org/1999/xlink" width="200" height="200"><defs><style type="text/css"></style></defs><path d="M879.232 715.392c40.64-66.752 62.528-143.488 62.528-223.36 0-237.312-192.384-429.76-429.76-429.76-237.312 0-429.696 192.384-429.696 429.76 0 75.84 19.712 148.864 56.576 213.248 7.936 13.76 25.344 18.496 39.104 10.624 13.696-7.808 18.496-25.344 10.624-39.04-32-55.744-49.024-119.04-49.024-184.832 0-205.632 166.784-372.416 372.416-372.416 205.76 0 372.352 166.784 372.352 372.416 0 69.312-18.88 135.744-54.144 193.536-8.256 13.504-4.032 31.104 9.472 39.424C853.248 733.184 870.848 728.896 879.232 715.392zM732.224 613.44c24.512-40.064 37.632-86.144 37.632-134.08 0-142.464-115.392-257.856-257.856-257.856-142.4 0-257.792 115.392-257.792 257.856 0 45.504 11.84 89.344 33.92 128 7.872 13.76 25.344 18.432 39.104 10.56 13.76-7.808 18.496-25.344 10.688-39.04C320.64 548.8 311.424 514.816 311.424 479.36 311.424 368.576 401.28 278.848 512 278.848s200.512 89.728 200.512 200.512c0 37.312-10.112 73.152-29.12 104.256-8.256 13.504-4.032 31.104 9.472 39.36C706.496 631.232 724.096 626.944 732.224 613.44zM678.144 651.52c-1.984-9.792-6.976-19.392-15.488-28.544C654.144 613.44 646.4 606.528 639.36 602.24S625.28 594.368 618.112 591.424C611.008 588.416 603.264 585.152 595.008 581.568c-8.384-3.52-17.92-9.344-28.992-17.472C553.152 555.328 542.912 546.304 535.36 537.088 527.808 527.936 521.472 519.744 516.288 512.512 511.36 505.472 501.312 490.56 496.448 486.464l0 0.448C492.544 482.048 486.72 478.784 479.936 478.784c-12.032 0-21.696 9.6-21.696 21.504l0 308.352c-19.2-11.712-43.136-18.88-69.632-18.88-62.144 0-112.576 38.528-112.576 86.016s50.432 85.952 112.576 85.952c62.144 0 112.512-38.464 112.512-85.952 0 0 0.512-9.408 0.512-10.304l0-274.56c0.576-4.864 2.368-6.336 4.224-7.104C510.336 581.696 516.48 584.32 524.608 591.744c8.384 8.448 19.008 17.536 31.68 27.264 12.736 9.728 27.264 16.192 43.968 19.328 15.744 2.88 27.392 7.552 35.008 14.08 7.488 6.592 12.224 16.768 14.016 30.528 1.152 8.576 2.752 14.4 4.736 17.472 1.984 3.2 4.224 4.928 6.848 5.312 2.624 0.32 5.76-2.048 9.344-7.168s6.4-11.84 7.872-19.904C680 670.528 679.872 661.504 678.144 651.52z" p-id="36057"></path></svg>