<?xml version="1.0" standalone="no"?><!DOCTYPE svg PUBLIC "-//W3C//DTD SVG 1.1//EN" "http://www.w3.org/Graphics/SVG/1.1/DTD/svg11.dtd"><svg t="1609381950129" class="icon" viewBox="0 0 1024 1024" version="1.1" xmlns="http://www.w3.org/2000/svg" p-id="35775" xmlns:xlink="http://www.w3.org/1999/xlink" width="200" height="200"><defs><style type="text/css"></style></defs><path d="M958.160991 501.460969c0-171.624822-92.6307-321.030597-229.384317-399.044392l-42.015929 76.061326c110.8609 63.012126 185.993065 183.948499 185.993065 322.983065 0 203.954135-161.522744 369.20376-360.735901 369.20376C312.772005 870.664729 151.299403 705.369056 151.299403 501.460969c0-138.988518 75.132164-259.928984 185.994088-322.983065l-42.054815-76.061326C158.434917 180.431396 65.837986 329.830007 65.837986 501.460969c0 252.239861 199.778023 456.700533 446.188108 456.700533C758.450507 958.169689 958.160991 753.700831 958.160991 501.460969z" p-id="35776"></path><path d="M308.771901 505.800811c-11.270694 12.053524-15.597233 27.950586-14.275121 43.426045-1.157359 15.682167 3.446495 31.659047 15.166421 43.629683l151.735843 155.312298c21.414729 21.919219 56.098669 21.919219 77.518514 0L690.649308 592.855516c11.682064-11.969613 16.340153-27.971052 15.132652-43.629683 1.291412-15.474436-3.00545-31.371498-14.317077-43.426045-0.292666 0.329505-0.49221 0.768503-0.845251 1.060145L538.878672 662.153812c-2.351558 2.397606-5.317099 3.488451-7.899924 5.348821L530.978748 104.20327c0-21.199835-13.818727-38.364773-30.852682-38.364773-17.038048 0-30.848589 17.157775-30.848589 38.364773l0 563.299363c-2.598174-1.859347-5.564739-2.951215-7.900947-5.348821L309.621245 506.860956C309.317323 506.529405 309.063543 506.08836 308.771901 505.800811z" p-id="35777"></path></svg>