<?xml version="1.0" standalone="no"?><!DOCTYPE svg PUBLIC "-//W3C//DTD SVG 1.1//EN" "http://www.w3.org/Graphics/SVG/1.1/DTD/svg11.dtd"><svg t="1609844694384" class="icon" viewBox="0 0 1024 1024" version="1.1" xmlns="http://www.w3.org/2000/svg" p-id="6349" xmlns:xlink="http://www.w3.org/1999/xlink" width="200" height="200"><defs><style type="text/css"></style></defs><path d="M512 0C229.376 0 0 229.376 0 512s229.376 512 512 512 512-229.376 512-512S794.624 0 512 0z m0 984.064c-260.608 0-472.064-211.456-472.064-472.064S251.392 39.936 512 39.936s472.064 211.456 472.064 472.064-211.456 472.064-472.064 472.064z" fill="#202020" p-id="6350"></path><path d="M512 748.544c-134.144 0-243.2-108.544-243.2-243.2h-39.936c0 156.16 126.464 283.136 283.136 283.136s283.136-126.464 283.136-283.136h-39.936c0 134.656-109.056 243.2-243.2 243.2zM268.8 343.552c0 25.088 19.968 45.056 45.056 45.056s45.056-19.968 45.056-45.056-19.968-45.056-45.056-45.056-45.056 19.968-45.056 45.056zM665.088 343.552c0 25.088 19.968 45.056 45.056 45.056s45.056-19.968 45.056-45.056-19.968-45.056-45.056-45.056-45.056 19.968-45.056 45.056z" fill="#202020" p-id="6351"></path></svg>