<?xml version="1.0" standalone="no"?><!DOCTYPE svg PUBLIC "-//W3C//DTD SVG 1.1//EN" "http://www.w3.org/Graphics/SVG/1.1/DTD/svg11.dtd"><svg t="1609658202951" class="icon" viewBox="0 0 1024 1024" version="1.1" xmlns="http://www.w3.org/2000/svg" p-id="1898" xmlns:xlink="http://www.w3.org/1999/xlink" width="200" height="200"><defs><style type="text/css"></style></defs><path d="M512 62a38.26799999 38.26799999 0 1 1 0 76.536c-206.31599999 0-373.57199999 167.256-373.57199999 373.57199999 0 206.28 167.256 373.464 373.57199999 373.464 206.31599999 0 373.57199999-167.256 373.57199999-373.57199999a38.26799999 38.26799999 0 1 1 76.42800001 0C962 760.50799999 760.50799999 962 512 962S62 760.50799999 62 512 263.49200001 62 512 62z m231.624 191.34000001a37.62000001 37.62000001 0 0 1 53.424-52.84800002l65.88 65.91600001a50.79600001 50.79600001 0 0 1 0 71.928l-65.88 65.88a37.584 37.584 0 0 1-53.10000001-53.136l11.16-11.16h-48.528c-131.90400001 0-176.688 56.16-176.688 226.008 0 20.808-16.776 37.584-37.58399998 37.584a37.512 37.512 0 0 1-37.54800001-37.584c0-210.024 76.64400001-301.14000001 251.82000001-301.14000001h48.49199999l-11.448-11.44799998z" fill="#656565" p-id="1899"></path></svg>