<?xml version="1.0" standalone="no"?><!DOCTYPE svg PUBLIC "-//W3C//DTD SVG 1.1//EN" "http://www.w3.org/Graphics/SVG/1.1/DTD/svg11.dtd"><svg t="1609316989261" class="icon" viewBox="0 0 1024 1024" version="1.1" xmlns="http://www.w3.org/2000/svg" p-id="11394" xmlns:xlink="http://www.w3.org/1999/xlink" width="200" height="200"><defs><style type="text/css"></style></defs><path d="M799.85560133 350.15230452a323.4481544 323.4481544 0 0 0-646.83002841 0 313.37353974 313.37353974 0 0 0 165.30321661 280.16707962A435.19684051 435.19684051 0 0 0 48.70028705 953.96637962a36.25535664 36.25535664 0 0 0 28.69939567 42.94967296h7.15827883a34.99602981 34.99602981 0 0 0 35.79139413-28.63311531 365.00593981 365.00593981 0 0 1 352.21383042-294.74875873h7.15827883a326.03308841 326.03308841 0 0 0 320.1341364-323.44815438v0.13256072z m-574.98211872 0a251.53396432 251.53396432 0 0 1 503.13420902 0 253.85377691 253.85377691 0 0 1-247.88854456 251.46768396h-10.86997895A255.57706626 255.57706626 0 0 1 224.93976298 350.15230452z m499.5550696 323.44815438a33.8692637 33.8692637 0 0 0 35.79139414 35.79139414h179.68605462a35.79139413 35.79139413 0 1 0 0-71.71534898h-179.68605462a35.92395486 35.92395486 0 0 0-35.79139414 35.79139413v0.06628035z m215.61000948 104.06016443H652.51436215a35.92395486 35.92395486 0 1 0 0 71.91419006h287.52419954a35.92395486 35.92395486 0 0 0 0-71.91419006z m0 143.82838014h-283.94506012a35.92395486 35.92395486 0 0 0 0 71.8479097h283.87877976a33.8692637 33.8692637 0 0 0 35.79139414-35.79139414c0-19.88410785-15.90728628-35.99023521-35.79139414-36.05651556z" fill="#323232" p-id="11395"></path></svg>