<?xml version="1.0" standalone="no"?><!DOCTYPE svg PUBLIC "-//W3C//DTD SVG 1.1//EN" "http://www.w3.org/Graphics/SVG/1.1/DTD/svg11.dtd"><svg t="1610591809285" class="icon" viewBox="0 0 1024 1024" version="1.1" xmlns="http://www.w3.org/2000/svg" p-id="2586" xmlns:xlink="http://www.w3.org/1999/xlink" width="200" height="200"><defs><style type="text/css"></style></defs><path d="M704 64h12.8c172.8 6.4 307.2 147.2 307.2 320 0 102.4-51.2 179.2-83.2 230.4-83.2 121.6-243.2 243.2-339.2 313.6l-25.6 12.8c-19.2 12.8-38.4 19.2-64 19.2-19.2 0-38.4-6.4-57.6-12.8l-12.8-6.4-32-19.2c-102.4-70.4-249.6-185.6-326.4-300.8l-12.8-25.6C38.4 544 0 480 0 384c0-179.2 140.8-320 320-320 70.4 0 140.8 25.6 192 76.8 51.2-44.8 115.2-70.4 179.2-76.8h12.8z" fill="#ec4141" p-id="2587"></path><path d="M691.2 134.4c-44.8 0-89.6 19.2-128 57.6l-51.2 44.8-51.2-44.8c-44.8-38.4-89.6-57.6-140.8-57.6-134.4 0-243.2 115.2-243.2 249.6 0 51.2 12.8 96 38.4 140.8l12.8 19.2 19.2 32c57.6 89.6 179.2 192 313.6 288l32 19.2c6.4 6.4 12.8 6.4 19.2 6.4 6.4 0 12.8 0 19.2-6.4l32-19.2c134.4-96 256-198.4 313.6-288l6.4-6.4 12.8-25.6c32-51.2 51.2-102.4 51.2-153.6 0-134.4-102.4-243.2-230.4-249.6H704l-12.8-6.4z" fill="#ec4141" p-id="2588"></path></svg>