<?xml version="1.0" standalone="no"?><!DOCTYPE svg PUBLIC "-//W3C//DTD SVG 1.1//EN" "http://www.w3.org/Graphics/SVG/1.1/DTD/svg11.dtd"><svg t="1610591067141" class="icon" viewBox="0 0 1024 1024" version="1.1" xmlns="http://www.w3.org/2000/svg" p-id="5135" xmlns:xlink="http://www.w3.org/1999/xlink" width="200" height="200"><defs><style type="text/css"></style></defs><path d="M706.112 64l13.44 0.256C888.64 71.424 1024 212.736 1024 385.536c0 103.68-49.088 176-84.928 228.672-80.832 118.784-242.368 241.92-340.992 310.784l-20.928 14.528c-19.648 13.44-42.24 20.48-65.408 20.48a112.896 112.896 0 0 1-58.496-15.936l-12.928-8.704-31.104-21.696c-99.392-70.4-248.32-186.688-324.096-299.2l-13.184-19.52C38.208 544.064 0 477.12 0 385.472 0 208.192 142.848 64 318.464 64c73.472 0 138.432 25.152 193.792 75.008 51.2-45.76 111.744-71.232 178.432-74.624L706.112 64l13.44 0.256-13.44-0.256zM691.2 136.192c-46.528 3.2-88.64 21.248-125.76 54.528l-53.312 47.68-53.12-47.808c-41.28-37.12-87.232-54.912-140.544-54.912-131.84 0-241.664 110.912-241.664 249.792 0 50.56 13.632 93.376 40.96 140.608l12.672 20.736 19.712 29.44c59.52 88.32 176.64 190.016 312.64 285.44l29.568 20.48c5.504 4.032 12.16 6.144 19.392 6.144 6.656 0 13.44-2.112 19.52-6.272l29.12-20.224C696.64 766.08 814.016 664.32 874.24 575.872l5.12-7.68 17.536-26.688c33.6-53.44 50.304-100.096 50.304-155.968 0-135.04-103.808-244.288-229.44-249.6l-12.416-0.256-14.08 0.512z" p-id="5136"></path></svg>