<?xml version="1.0" standalone="no"?><!DOCTYPE svg PUBLIC "-//W3C//DTD SVG 1.1//EN" "http://www.w3.org/Graphics/SVG/1.1/DTD/svg11.dtd"><svg t="1610419215794" class="icon" viewBox="0 0 1024 1024" version="1.1" xmlns="http://www.w3.org/2000/svg" p-id="2465" xmlns:xlink="http://www.w3.org/1999/xlink" width="200" height="200"><defs><style type="text/css"></style></defs><path d="M612.231819 403.87849c-8.250918-7.688099-18.064424-13.616112-29.433356-17.780969-11.377118-4.163833-23.710005-6.247284-37.003775-6.247284s-25.587771 2.083451-36.879955 6.247284c-11.292184 4.167926-21.064758 10.091846-29.309536 17.780969-8.253988 7.689123-14.697747 17.019629-19.345604 27.988448-4.646833 10.977006-6.962575 23.271006-6.962575 36.884049 0 13.453407 2.315742 25.748431 6.962575 36.880979s11.091616 20.664645 19.345604 28.589129c8.244778 7.93267 18.017352 14.060227 29.309536 18.383696 11.291161 4.322445 23.587208 6.484691 36.879955 6.484691 13.293771 0 25.625634-2.162246 37.003775-6.484691 11.368932-4.323469 21.182438-10.453073 29.433356-18.383696 8.244778-7.925507 14.693654-17.452487 19.340487-28.589129 4.64274-11.132548 6.967692-23.426549 6.967692-36.880979 0-13.613042-2.324952-25.907043-6.967692-36.884049C626.925473 420.898119 620.476597 411.567613 612.231819 403.87849zM590.965469 490.01222c-2.403746 6.488785-5.768377 12.056594-10.092869 16.700357-4.323469 4.647857-9.454326 8.290827-15.378246 10.93198-5.92392 2.644223-12.490475 3.962242-19.701714 3.962242-7.204076 0-13.776771-1.318018-19.699668-3.962242-5.928013-2.642177-11.016915-6.285147-15.255449-10.93198-4.248767-4.64274-7.568373-10.210549-9.972119-16.700357-2.403746-6.485715-3.602038-13.57211-3.602038-21.261233 0-7.365758 1.157359-14.255679 3.483334-20.663622 2.321882-6.40692 5.646604-11.893888 9.970072-16.457834 4.327562-4.565992 9.449209-8.172123 15.377222-10.813277 5.92392-2.645247 12.494569-3.967358 19.699668-3.967358 7.211239 0 13.81975 1.322112 19.824511 3.967358 6.006807 2.641153 11.132548 6.248308 15.378246 10.813277 4.241604 4.564969 7.570419 10.051937 9.968026 16.457834 2.4017 6.407943 3.602038 13.297864 3.602038 20.663622C594.567507 476.44011 593.368192 483.527528 590.965469 490.01222z" p-id="2466"></path><path d="M385.058866 448.808796 318.745555 448.808796 318.745555 384.415206 277.660834 384.415206 277.660834 554.523489 318.745555 554.523489 318.745555 483.403708 385.058866 483.403708 385.058866 554.523489 426.146657 554.523489 426.14768 554.523489 426.14768 384.415206 385.058866 384.415206Z" p-id="2467"></path><path d="M779.576151 384.415206 642.384559 384.415206 642.384559 419.495166 690.439018 419.495166 690.439018 554.524512 731.523739 554.524512 731.523739 419.495166 779.577175 419.495166Z" p-id="2468"></path></svg>