<?xml version="1.0" standalone="no"?><!DOCTYPE svg PUBLIC "-//W3C//DTD SVG 1.1//EN" "http://www.w3.org/Graphics/SVG/1.1/DTD/svg11.dtd"><svg t="1609844683411" class="icon" viewBox="0 0 1024 1024" version="1.1" xmlns="http://www.w3.org/2000/svg" p-id="6202" xmlns:xlink="http://www.w3.org/1999/xlink" width="200" height="200"><defs><style type="text/css"></style></defs><path d="M95.725178 391.964136l162.260547 0c20.212344 0 36.5658-16.372899 36.5658-36.5658s-16.35448-36.5658-36.5658-36.5658L95.725178 318.832536c-20.211321 0-36.5658 16.372899-36.5658 36.5658S75.513858 391.964136 95.725178 391.964136z" p-id="6203"></path><path d="M923.029354 391.964136c20.211321 0 36.5658-16.372899 36.5658-36.5658s-16.35448-36.5658-36.5658-36.5658L699.06242 318.832536 699.06242 106.292861c0-20.192901-16.35448-36.5658-36.5658-36.5658s-36.5658 16.372899-36.5658 36.5658l0 212.539674L446.528869 318.832536c-20.211321 0-36.5658 16.372899-36.5658 36.5658s16.35448 36.5658 36.5658 36.5658l179.401949 0 0 518.77838c0 20.192901 16.35448 36.5658 36.5658 36.5658s36.5658-16.372899 36.5658-36.5658L699.06242 391.964136 923.029354 391.964136z" p-id="6204"></path><path d="M923.029354 613.645005 757.339708 613.645005c-20.211321 0-36.5658 16.372899-36.5658 36.5658s16.35448 36.5658 36.5658 36.5658l165.689646 0c20.211321 0 36.5658-16.372899 36.5658-36.5658S943.239652 613.645005 923.029354 613.645005z" p-id="6205"></path><path d="M559.654346 613.645005 385.966539 613.645005 385.966539 106.292861c0-20.192901-16.35448-36.5658-36.5658-36.5658-20.210297 0-36.5658 16.372899-36.5658 36.5658l0 507.352143L95.725178 613.645005c-20.211321 0-36.5658 16.372899-36.5658 36.5658s16.35448 36.5658 36.5658 36.5658l217.10976 0 0 223.965911c0 20.192901 16.355503 36.5658 36.5658 36.5658 20.212344 0 36.5658-16.372899 36.5658-36.5658L385.966539 686.776605l173.687808 0c20.212344 0 36.5658-16.372899 36.5658-36.5658S579.86669 613.645005 559.654346 613.645005z" p-id="6206"></path></svg>