<?xml version="1.0" standalone="no"?><!DOCTYPE svg PUBLIC "-//W3C//DTD SVG 1.1//EN" "http://www.w3.org/Graphics/SVG/1.1/DTD/svg11.dtd"><svg t="1609905114565" class="icon" viewBox="0 0 1024 1024" version="1.1" xmlns="http://www.w3.org/2000/svg" p-id="10201" xmlns:xlink="http://www.w3.org/1999/xlink" width="200" height="200"><defs><style type="text/css"></style></defs><path d="M491.195 840.5c7.048 0.332 14.151 0.5 21.305 0.5C726.868 841 896 690.03 896 511.5 896 332.968 726.868 182 512.5 182S129 332.97 129 511.5c0 104.163 57.574 198.944 148.115 259.832L242.203 841h248.992v-0.5z m10.138 65.39l-320 0.11c-15.04-0.075-27.173-12.329-27.098-27.37a27.234 27.234 0 0 1 2.975-12.24L195.672 791C114.332 719.668 64 621.004 64 512c0-217.6 200.576-394 448-394s448 176.4 448 394-200.576 394-448 394c-3.565 0-7.121-0.037-10.667-0.11zM684 468.001h85V553h-85v-85 0.001z m-213 0h85V553h-85v-85 0.001z m-216 0h85V553h-85v-85 0.001z" p-id="10202"></path></svg>