<?xml version="1.0" standalone="no"?><!DOCTYPE svg PUBLIC "-//W3C//DTD SVG 1.1//EN" "http://www.w3.org/Graphics/SVG/1.1/DTD/svg11.dtd"><svg t="1609317027957" class="icon" viewBox="0 0 1024 1024" version="1.1" xmlns="http://www.w3.org/2000/svg" p-id="11675" xmlns:xlink="http://www.w3.org/1999/xlink" width="200" height="200"><defs><style type="text/css"></style></defs><path d="M764.544 64c12.48 0 24.256 5.952 31.872 16.128l219.136 291.392a42.624 42.624 0 0 1-2.368 53.824l-471.68 521.408a39.488 39.488 0 0 1-57.024 2.112l-2.048-2.112L10.88 425.408a42.624 42.624 0 0 1-2.368-53.888L227.648 80.128A39.936 39.936 0 0 1 259.392 64h505.152z m-20.48 70.4H267.136L76.8 392.96 505.6 876.8l428.8-483.84L744 134.4zM713.92 396.352a42.368 42.368 0 0 1-10.88 29.824L571.136 572.16c-14.592 16.128-34.816 25.6-56.256 26.432a79.36 79.36 0 0 1-57.856-22.4l-3.968-4.032L321.6 426.88a42.56 42.56 0 0 1-9.088-40.576 40.896 40.896 0 0 1 29.504-28.416c14.08-3.328 28.8 1.28 38.592 12.16L512 515.392l132.032-145.984a39.68 39.68 0 0 1 57.088-2.048 42.24 42.24 0 0 1 12.8 28.992z" p-id="11676"></path></svg>