<?xml version="1.0" standalone="no"?><!DOCTYPE svg PUBLIC "-//W3C//DTD SVG 1.1//EN" "http://www.w3.org/Graphics/SVG/1.1/DTD/svg11.dtd"><svg t="1609072792091" class="icon" viewBox="0 0 1024 1024" version="1.1" xmlns="http://www.w3.org/2000/svg" p-id="887" xmlns:xlink="http://www.w3.org/1999/xlink" width="200" height="200"><defs><style type="text/css"></style></defs><path d="M928 254.4c0-0.3 0-0.5-0.1-0.7 0-0.3 0-0.5-0.1-0.8 0-0.3-0.1-0.6-0.1-0.9 0-0.2 0-0.4-0.1-0.6 0-0.3-0.1-0.7-0.2-1 0-0.2-0.1-0.4-0.1-0.5-0.1-0.3-0.1-0.7-0.2-1 0-0.2-0.1-0.3-0.1-0.5-0.1-0.3-0.2-0.6-0.3-1-0.1-0.2-0.1-0.4-0.2-0.6l-0.3-0.9c-0.1-0.2-0.1-0.4-0.2-0.6-0.1-0.3-0.2-0.5-0.3-0.8-0.1-0.2-0.2-0.5-0.3-0.7-0.1-0.2-0.2-0.4-0.3-0.7-0.1-0.3-0.2-0.5-0.4-0.8l-0.3-0.6c-0.1-0.3-0.3-0.6-0.4-0.9-0.1-0.2-0.2-0.3-0.3-0.5-0.2-0.3-0.3-0.6-0.5-0.9-0.1-0.1-0.2-0.3-0.3-0.4l-0.6-0.9c-0.1-0.1-0.2-0.3-0.3-0.4l-0.6-0.9c-0.1-0.1-0.2-0.3-0.3-0.4-0.2-0.3-0.4-0.5-0.6-0.8-0.1-0.2-0.3-0.3-0.5-0.5s-0.4-0.4-0.6-0.7c-0.3-0.3-0.6-0.6-0.8-0.9-0.1-0.1-0.2-0.2-0.2-0.3-0.1-0.1-0.2-0.2-0.3-0.2-0.3-0.3-0.6-0.6-0.9-0.8l-0.6-0.6c-0.2-0.2-0.4-0.3-0.5-0.5-0.3-0.2-0.5-0.4-0.8-0.6-0.1-0.1-0.3-0.2-0.4-0.3l-0.9-0.6c-0.1-0.1-0.3-0.2-0.4-0.3l-0.9-0.6c-0.1-0.1-0.3-0.2-0.4-0.3-0.3-0.2-0.6-0.3-0.9-0.5-0.2-0.1-0.3-0.2-0.5-0.3-0.3-0.2-0.6-0.3-0.9-0.4l-0.6-0.3c-0.3-0.1-0.5-0.2-0.8-0.4-0.2-0.1-0.4-0.2-0.7-0.3-0.2-0.1-0.5-0.2-0.7-0.3-0.3-0.1-0.5-0.2-0.8-0.3-0.2-0.1-0.4-0.1-0.6-0.2l-0.9-0.3c-0.2-0.1-0.4-0.1-0.6-0.2l-0.9-0.3c-0.2 0-0.4-0.1-0.5-0.1-0.3-0.1-0.7-0.2-1-0.2-0.2 0-0.4-0.1-0.6-0.1-0.3-0.1-0.7-0.1-1-0.2-0.2 0-0.4-0.1-0.6-0.1-0.3 0-0.6-0.1-0.9-0.1-0.3 0-0.6 0-0.9-0.1H128c-17.7 0-32 14.3-32 32v576c0 17.7 14.3 32 32 32h768c17.7 0 32-14.3 32-32V256v-1.6zM818.7 288L512 594.7 205.3 288h613.4zM160 800V333.3l329.4 329.4c6.2 6.2 14.4 9.4 22.6 9.4s16.4-3.1 22.6-9.4L864 333.3V800H160z" fill="#ffffff" p-id="888"></path></svg>