<?xml version="1.0" standalone="no"?><!DOCTYPE svg PUBLIC "-//W3C//DTD SVG 1.1//EN" "http://www.w3.org/Graphics/SVG/1.1/DTD/svg11.dtd"><svg t="1609300600804" class="icon" viewBox="0 0 1024 1024" version="1.1" xmlns="http://www.w3.org/2000/svg" p-id="5770" xmlns:xlink="http://www.w3.org/1999/xlink" width="200" height="200"><defs><style type="text/css"></style></defs><path d="M511.994749 1020.195446C252.305723 1020.195446 41.033518 808.920615 41.033518 549.223713c0-137.160862 59.623056-267.219364 163.577436-356.824615l31.665231 36.737969c-93.257518 80.381374-146.744451 197.049108-146.744451 320.086646 0 232.952123 189.516144 422.470892 422.46039 422.470892 232.952123 0 422.470892-189.521395 422.470892-422.470892 0-120.7296-51.845908-235.968985-142.241477-316.163938l32.187733-36.278482c100.7616 89.3952 158.551959 217.854687 158.551959 352.442421C982.963856 808.920615 771.6864 1020.195446 511.994749 1020.195446z" p-id="5771"></path><path d="M485.74359 2.625641l49.887179 0 0 593.394872-49.887179 0 0-593.394872Z" p-id="5772"></path></svg>