<?xml version="1.0" standalone="no"?><!DOCTYPE svg PUBLIC "-//W3C//DTD SVG 1.1//EN" "http://www.w3.org/Graphics/SVG/1.1/DTD/svg11.dtd"><svg t="1609988861774" class="icon" viewBox="0 0 1024 1024" version="1.1" xmlns="http://www.w3.org/2000/svg" p-id="5516" xmlns:xlink="http://www.w3.org/1999/xlink" width="200" height="200"><defs><style type="text/css"></style></defs><path d="M502.897778 18.261333C227.896889 18.261333 0 246.328889 0 521.159111S227.953778 1024 502.897778 1024c274.830222 0 502.840889-227.953778 502.840889-502.897778 0-274.830222-228.010667-502.840889-502.897778-502.840889z m214.471111 643.697778c20.138667 20.081778 20.138667 46.933333 0 67.015111-20.081778 20.138667-46.876444 20.138667-67.015111 0L509.553778 588.231111l-147.512889 147.512889a52.622222 52.622222 0 0 1-73.728 0 52.622222 52.622222 0 0 1 0-73.728L435.768889 514.446222 295.025778 373.646222c-20.138667-20.138667-20.138667-46.933333 0-67.072 20.081778-20.081778 46.933333-20.081778 67.015111 0L502.897778 447.374222l147.512889-147.512889a52.622222 52.622222 0 0 1 73.784889 0 52.622222 52.622222 0 0 1 0 73.784889L576.625778 521.102222l140.8 140.8z" fill="#FFFFFF" p-id="5517"></path></svg>