<?xml version="1.0" standalone="no"?><!DOCTYPE svg PUBLIC "-//W3C//DTD SVG 1.1//EN" "http://www.w3.org/Graphics/SVG/1.1/DTD/svg11.dtd"><svg t="1610973476909" class="icon" viewBox="0 0 1024 1024" version="1.1" xmlns="http://www.w3.org/2000/svg" p-id="6768" xmlns:xlink="http://www.w3.org/1999/xlink" width="200" height="200"><defs><style type="text/css"></style></defs><path d="M516.64 9.312C237.392 9.312 10.88 235.824 10.88 515.104c0 279.264 226.512 505.792 505.792 505.792s505.792-226.528 505.792-505.792C1022.448 237.376 795.92 9.312 516.64 9.312z m0 982.112c-262.192 0-474.752-212.56-474.752-474.768 0-262.208 212.56-474.768 474.768-474.768 262.208 0 474.768 212.56 474.768 474.768 0 262.208-212.56 474.768-474.768 474.768z" p-id="6769"></path><path d="M705.936 474.768l-235.84-148.96c-21.712-13.952-51.2-7.744-63.6 13.968-4.64 7.76-7.76 15.52-7.76 24.832v297.888c0 26.384 20.16 46.56 46.56 46.56 9.296 0 17.056-3.12 24.8-7.776l237.392-148.944c21.728-13.968 27.936-41.888 13.968-63.616-4.656-4.64-9.312-9.296-15.52-13.952z" p-id="6770"></path></svg>