<?xml version="1.0" standalone="no"?><!DOCTYPE svg PUBLIC "-//W3C//DTD SVG 1.1//EN" "http://www.w3.org/Graphics/SVG/1.1/DTD/svg11.dtd"><svg t="1610762979408" class="icon" viewBox="0 0 1024 1024" version="1.1" xmlns="http://www.w3.org/2000/svg" p-id="2617" xmlns:xlink="http://www.w3.org/1999/xlink" width="200" height="200"><defs><style type="text/css"></style></defs><path d="M704.937354 487.943877L424.723692 300.126523c-8.711877-6.301538-31.933046-6.301538-33.807754 17.486769v375.634708c2.079508 23.788308 25.726031 24.197908 33.807754 17.486769l280.197908-187.817354c7.246769-4.269292 17.218954-21.756062 0-34.973538z" fill="#ffffff" p-id="2618"></path><path d="M505.525169 0C226.760862 0 0 226.760862 0 505.525169c0 278.748554 226.760862 505.509415 505.525169 505.509416 278.748554 0 505.509415-226.760862 505.509416-505.509416C1011.034585 226.760862 784.273723 0 505.540923 0z m0 967.916308C250.486154 967.916308 43.118277 760.548431 43.118277 505.525169 43.118277 250.486154 250.486154 43.118277 505.540923 43.118277c255.023262 0 462.375385 207.367877 462.375385 462.406892 0 255.023262-207.352123 462.375385-462.375385 462.375385z" fill="#ffffff" p-id="2619"></path></svg>