<?xml version="1.0" standalone="no"?><!DOCTYPE svg PUBLIC "-//W3C//DTD SVG 1.1//EN" "http://www.w3.org/Graphics/SVG/1.1/DTD/svg11.dtd"><svg t="1609381978207" class="icon" viewBox="0 0 1026 1024" version="1.1" xmlns="http://www.w3.org/2000/svg" p-id="36196" xmlns:xlink="http://www.w3.org/1999/xlink" width="200.390625" height="200"><defs><style type="text/css"></style></defs><path d="M1.024 225.32608l532.48 0 0 40.957952-532.48 0 0-40.957952Z" p-id="36197"></path><path d="M1.024 409.63584l532.48 0 0 40.957952-532.48 0 0-40.957952Z" p-id="36198"></path><path d="M1.024 593.944576l532.48 0 0 40.957952-532.48 0 0-40.957952Z" p-id="36199"></path><path d="M738.305024 249.8048 1025.024 286.763008C1025.024 81.975296 861.185024 41.017344 697.345024 0l0 30.138368 0 214.387712 0 533.72928c-24.51968 0-63.519744 0-126.200832 0-120.379392 0-160.519168 63.695872-160.519168 121.872384 0 49.3568 36.938752 123.87328 163.84 123.87328 181.440512 0 163.84-145.672192 163.84-245.74464L738.305024 249.8048z" p-id="36200"></path></svg>