<?xml version="1.0" standalone="no"?><!DOCTYPE svg PUBLIC "-//W3C//DTD SVG 1.1//EN" "http://www.w3.org/Graphics/SVG/1.1/DTD/svg11.dtd"><svg t="1610248781005" class="icon" viewBox="0 0 1024 1024" version="1.1" xmlns="http://www.w3.org/2000/svg" p-id="6155" xmlns:xlink="http://www.w3.org/1999/xlink" width="200" height="200"><defs><style type="text/css"></style></defs><path d="M85.333333 369.800533h853.333334V277.367467c0-49.834667 0-64.034133-7.099734-85.333334-7.099733-14.267733-14.267733-21.367467-21.367466-28.4672-21.2992-7.099733-35.498667-7.099733-85.333334-7.099733h-28.398933V85.333333h28.398933c64.034133 0 85.333333 7.099733 106.7008 21.367467 21.2992 14.199467 42.666667 28.398933 56.866134 56.866133 14.267733 14.199467 21.367467 42.666667 21.367466 106.632534v561.834666c0 63.965867-7.099733 85.333333-21.367466 106.632534-14.199467 21.367467-28.398933 42.666667-56.866134 56.866133-21.367467 14.267733-42.666667 21.367467-106.7008 21.367467H199.133867c-64.034133 0-85.333333-7.099733-106.7008-21.367467-21.2992-14.199467-42.666667-28.398933-56.866134-56.866133-14.267733-21.367467-21.367467-49.834667-21.367466-113.800534V270.199467c0-63.965867 7.168-92.433067 21.367466-113.732267 7.099733-21.367467 28.398933-42.666667 49.7664-49.834667 21.367467-14.199467 49.834667-21.2992 113.800534-21.2992h28.398933v71.133867h-28.398933c-49.834667 0-64.034133 0-78.2336 14.199467a98.167467 98.167467 0 0 0-28.4672 21.367466c-7.099733 21.2992-7.099733 35.498667-7.099734 85.333334v92.433066z m0 71.0656v376.900267c0 49.834667 0 64.034133 7.099734 85.333333 7.099733 14.267733 14.199467 21.367467 21.367466 28.4672 21.2992 7.099733 35.498667 7.099733 85.333334 7.099734h632.832c49.834667 0 64.034133 0 78.2336-14.199467 14.267733-7.099733 21.367467-14.267733 21.367466-28.4672 7.099733-14.199467 7.099733-28.4672 7.099734-78.2336V441.002667H85.333333zM583.133867 85.333333v71.133867H440.866133V85.333333h142.267734zM334.2336 14.199467c21.2992 0 35.498667 14.267733 35.498667 35.566933v142.199467c0 21.367467-14.199467 35.566933-35.498667 35.566933-21.367467 0-35.566933-14.199467-35.566933-35.498667V49.698133c0-21.2992 14.199467-35.498667 35.498666-35.498666z m355.5328 0c21.367467 0 35.566933 14.267733 35.566933 35.566933v142.199467c0 21.367467-14.199467 35.566933-35.498666 35.566933-21.367467 0-35.6352-14.199467-35.6352-35.498667V49.698133c0-21.2992 14.267733-35.498667 35.566933-35.498666z" p-id="6156"></path></svg>