<?xml version="1.0" standalone="no"?><!DOCTYPE svg PUBLIC "-//W3C//DTD SVG 1.1//EN" "http://www.w3.org/Graphics/SVG/1.1/DTD/svg11.dtd"><svg t="1610016837006" class="icon" viewBox="0 0 1024 1024" version="1.1" xmlns="http://www.w3.org/2000/svg" p-id="2831" xmlns:xlink="http://www.w3.org/1999/xlink" width="200" height="200"><defs><style type="text/css"></style></defs><path d="M610.752 0v94.976h197.184l-193.28 210.112C465.92 200.64 239.36 213.952 104.576 360.512c-146.56 159.424-136.32 410.816 21.76 558.912 157.888 148.16 403.84 137.152 550.656-22.4 134.72-146.496 145.728-361.856 12.736-521.472l203.136-221.056v225.408h94.08V0h-376.32M604.8 829.44a286.72 286.72 0 0 1-407.488 15.296 293.632 293.632 0 0 1-14.976-411.648 286.72 286.72 0 0 1 407.488-15.168c116.48 109.184 123.136 293.824 14.976 411.52" fill="#359ccf" p-id="2832"></path></svg>