<?xml version="1.0" standalone="no"?><!DOCTYPE svg PUBLIC "-//W3C//DTD SVG 1.1//EN" "http://www.w3.org/Graphics/SVG/1.1/DTD/svg11.dtd"><svg t="1610016829768" class="icon" viewBox="0 0 1024 1024" version="1.1" xmlns="http://www.w3.org/2000/svg" p-id="2688" xmlns:xlink="http://www.w3.org/1999/xlink" width="200" height="200"><defs><style type="text/css"></style></defs><path d="M622.56259199 0.002536a353.329052 353.329052 0 0 1 219.77405101 75.652991A356.710191 356.710191 0 0 1 622.139949 713.422918a356.710191 356.710191 0 0 1 0-713.420382z m1e-8 606.914496a249.781662 249.781662 0 0 0 153.841836-447.155666 253.585444 253.585444 0 0 0-350.793198 42.26424 250.626947 250.626947 0 0 0 42.264241 351.21584 247.245808 247.245808 0 0 0 154.264478 53.252943z" fill="#e8528f" p-id="2689"></path><path d="M435.332006 542.252743a53.252943 53.252943 0 0 1 42.26424 84.528482l-287.39683599 367.698893a53.252943 53.252943 0 0 1-84.528482-65.932215l287.39683699-367.698894a53.252943 53.252943 0 0 1 42.264241-20.286835z" fill="#e8528f" p-id="2690"></path><path d="M107.78414 581.98113a53.675586 53.675586 0 0 1 32.966108 11.411345l367.698894 287.819479a53.252943 53.252943 0 1 1-65.932216 84.528481l-367.698893-287.396837a53.252943 53.252943 0 0 1 32.966107-95.517184zM147.935169 909.951637l2.113212 0 176.664526 6.762279a53.252943 53.252943 0 0 1 51.139731 55.366155A49.871804 49.871804 0 0 1 322.063841 1023.642445l-176.66452601-6.762279a53.252943 53.252943 0 0 1 2.11321201-106.505886z" fill="#e8528f" p-id="2691"></path><path d="M98.48600801 740.04939a53.252943 53.252943 0 0 1 51.13973099 38.460459l49.026519 169.056962a53.252943 53.252943 0 0 1-102.702105 29.58496899l-49.026519-169.05696299a53.675586 53.675586 0 0 1 36.347247-65.932215 50.717089 50.717089 0 0 1 14.792484-2.11321201z" fill="#e8528f" p-id="2692"></path></svg>