<?xml version="1.0" standalone="no"?><!DOCTYPE svg PUBLIC "-//W3C//DTD SVG 1.1//EN" "http://www.w3.org/Graphics/SVG/1.1/DTD/svg11.dtd"><svg t="1609905126033" class="icon" viewBox="0 0 1024 1024" version="1.1" xmlns="http://www.w3.org/2000/svg" p-id="10341" xmlns:xlink="http://www.w3.org/1999/xlink" width="200" height="200"><defs><style type="text/css"></style></defs><path d="M796.41 633.47c-57.86 0-108.55 30.26-137.45 75.72l-272.81-157.5c1.92-9.99 3-20.28 3-30.83 0-10.55-1.09-20.84-3-30.83L667.84 327.4c29.8 38.36 76.25 63.14 128.59 63.14 89.97 0 162.91-72.94 162.91-162.91S886.4 64.71 796.42 64.71s-162.91 72.94-162.91 162.91c0 14.26 2.02 28.01 5.46 41.19l-277.99 160.5c-29.32-43.06-78.72-71.36-134.74-71.36-89.97 0-162.91 72.94-162.91 162.91s72.94 162.91 162.91 162.91c56.02 0 105.42-28.3 134.74-71.36L635.68 771c-1.3 8.29-2.17 16.73-2.17 25.38 0 89.97 72.94 162.91 162.91 162.91s162.91-72.94 162.91-162.91-72.94-162.91-162.92-162.91z m0.01-503.6c53.9 0 97.75 43.85 97.75 97.75s-43.85 97.75-97.75 97.75-97.75-43.85-97.75-97.75 43.85-97.75 97.75-97.75zM226.24 618.6c-53.9 0-97.75-43.85-97.75-97.75s43.85-97.75 97.75-97.75 97.75 43.85 97.75 97.75-43.85 97.75-97.75 97.75z m570.17 275.53c-53.9 0-97.75-43.85-97.75-97.75s43.85-97.75 97.75-97.75 97.75 43.85 97.75 97.75-43.85 97.75-97.75 97.75z" fill="#666666" p-id="10342"></path></svg>