<?xml version="1.0" standalone="no"?><!DOCTYPE svg PUBLIC "-//W3C//DTD SVG 1.1//EN" "http://www.w3.org/Graphics/SVG/1.1/DTD/svg11.dtd"><svg t="1609316938558" class="icon" viewBox="0 0 1024 1024" version="1.1" xmlns="http://www.w3.org/2000/svg" p-id="10838" xmlns:xlink="http://www.w3.org/1999/xlink" width="200" height="200"><defs><style type="text/css"></style></defs><path d="M512.819 268.953c120.704 0.182 218.356 97.875 218.559 218.661-0.122 66.063-26.248 125.031-61.029 174.858 52.354-27.563 118.398-85.377 118.459-174.858-0.061-152.453-123.636-275.989-275.988-276.01l-0.83 0c-152.393 0.021-275.948 123.557-275.989 276.01 0.041 89.481 66.065 147.296 118.461 174.858-34.803-49.827-60.949-108.795-61.05-174.858 0.202-120.785 97.874-218.479 218.578-218.661L512.819 268.953zM512.031 63.822c-234.11 0-423.71 189.703-423.771 423.69 0 62.769 13.69 122.422 38.179 176.01 49.139 107.419 141.836 172.696 255.525 202.341l-7.706-15.955C287.445 807.36 217.235 723.985 178.51 638.975c-21.05-46.127-32.719-97.41-32.839-151.462 0.303-202.341 164.02-365.937 366.361-366.341 202.278 0.404 365.955 164 366.278 366.341-0.241 150.815-91.281 298.514-221.389 361.607l-6.612 17.371C816.392 815.47 935.72 673.066 935.74 487.512 935.7 253.524 746.038 63.822 512.031 63.822M634.817 616.366c12.153 149.722-70.472 333.802-70.472 333.802s-20.972 10.01-52.073 10.01c-31.04 0-52.556-10.01-52.556-10.01s-82.688-184.08-70.534-333.802c0 0 19.493-62.972 123.798-62.972C617.266 553.395 634.817 616.366 634.817 616.366M605.294 429.009c0 51.526-41.778 93.304-93.304 93.304-51.485 0-93.263-41.778-93.263-93.304 0-51.504 41.778-93.284 93.263-93.284C563.516 335.726 605.294 377.505 605.294 429.009" p-id="10839" fill="#333333"></path></svg>