<?xml version="1.0" standalone="no"?><!DOCTYPE svg PUBLIC "-//W3C//DTD SVG 1.1//EN" "http://www.w3.org/Graphics/SVG/1.1/DTD/svg11.dtd"><svg t="1609382039679" class="icon" viewBox="0 0 1154 1024" version="1.1" xmlns="http://www.w3.org/2000/svg" p-id="36903" xmlns:xlink="http://www.w3.org/1999/xlink" width="225.390625" height="200"><defs><style type="text/css"></style></defs><path d="M1154.784061 481.668115a75.089188 75.089188 0 0 0-6.37971-25.518841L934.684061 38.278261a63.031536 63.031536 0 0 0-57.417391-38.278261H280.763773a63.031536 63.031536 0 0 0-57.417391 38.278261L6.436237 462.528984a60.096869 60.096869 0 0 0-6.37971 25.518841v503.9971a30.112232 30.112232 0 0 0 31.898551 31.898551h1090.930432a30.112232 30.112232 0 0 0 31.898551-31.898551v-510.37681z m-1087.740577-6.37971l204.150724-398.731883A33.493478 33.493478 0 0 1 299.902903 60.607246l558.224637 3.189855a33.493478 33.493478 0 0 1 28.708695 15.949276l200.960869 395.542028a23.923913 23.923913 0 0 1 3.189855 15.949275v19.13913h-226.479709a30.112232 30.112232 0 0 0-31.898551 31.898551v95.695652h-510.37681V542.275361a30.112232 30.112232 0 0 0-31.898551-31.898551H63.853629v-15.949275a40.447362 40.447362 0 0 1 3.189855-19.13913z m1023.943475 478.478259H63.853629v-382.782607h194.581159v95.695652a30.112232 30.112232 0 0 0 31.89855 31.89855h574.173912a30.112232 30.112232 0 0 0 31.898551-31.89855v-95.695652H1090.986959v382.782607z" fill="#333333" p-id="36904"></path><path d="M666.736236 170.848637c60.288261 0 109.284435 53.589565 109.220637 119.428174 0 39.235217-17.480406 66.923159-31.89855 89.315942C702.845395 443.900231 599.74928 524.093187 595.34728 527.410636a22.392783 22.392783 0 0 1-27.879334 0c-4.465797-3.317449-107.689507-83.319014-148.711043-147.817883-14.226754-22.137594-31.898551-49.889333-31.898551-89.315942 0-65.838609 48.996174-119.428174 109.284435-119.428174a106.222174 106.222174 0 0 1 85.105333 44.657971 106.413565 106.413565 0 0 1 85.105333-44.657971z" fill="#333333" p-id="36905"></path></svg>