<?xml version="1.0" standalone="no"?><!DOCTYPE svg PUBLIC "-//W3C//DTD SVG 1.1//EN" "http://www.w3.org/Graphics/SVG/1.1/DTD/svg11.dtd"><svg t="1609658192124" class="icon" viewBox="0 0 1024 1024" version="1.1" xmlns="http://www.w3.org/2000/svg" p-id="1757" xmlns:xlink="http://www.w3.org/1999/xlink" width="200" height="200"><defs><style type="text/css"></style></defs><path d="M919.296 288.152h-34.267v-78.288c0-38.517-32.037-70.436-70.53-70.436H478.776L464.153 103.1c-11.964-24.32-37.191-39.253-64.281-39.253H104.658C46.941 63.847 0 109.878 0 167.571v688.857c0 57.717 46.941 103.725 104.658 103.725h698.343C924.857 960.153 1024 848.94 1024 740.087V392.739c0-57.693-47.011-104.587-104.704-104.587z m-145.428-75.581c17.055 0 30.703 13.556 30.703 30.61v44.971H543.216l-30.164-75.581h260.816z m176.989 290.065v232.13c0 82.979-67.895 149.805-150.874 149.805h-692.07c-19.203 0-34.77-14.496-34.77-33.699V173.127c0-19.203 15.567-33.699 34.77-33.699h292.186c0.673 0 1.3-0.139 1.603 0.463l83.336 200.97c4.218 10.187 14.13 16.723 25.154 16.789 81.197 0.48 405.885 0.717 405.885 0.717 19.206 0 34.781 15.494 34.781 34.679v109.59z"  p-id="1758"></path><path d="M534.412 532.531l-59.974-119.842-58.64 120.499-132.508 20.005 96.48 93.006-21.922 132.205 118.268-63.017 118.961 61.701-23.387-131.953 95.444-94.071z"  p-id="1759"></path></svg>