<?xml version="1.0" standalone="no"?><!DOCTYPE svg PUBLIC "-//W3C//DTD SVG 1.1//EN" "http://www.w3.org/Graphics/SVG/1.1/DTD/svg11.dtd"><svg t="1609327186728" class="icon" viewBox="0 0 1024 1024" version="1.1" xmlns="http://www.w3.org/2000/svg" p-id="1223" xmlns:xlink="http://www.w3.org/1999/xlink" width="200" height="200"><defs><style type="text/css"></style></defs><path d="M183.19817 595.086848C166.54298 578.447872 166.432132 551.567957 183.210048 534.789419 199.871795 518.127019 226.928683 518.169899 243.497387 534.7392L415.099529 706.347733C423.322176 714.570709 436.632525 714.592128 445.149129 706.07552L925.370684 225.853995C942.01766 209.206997 968.904051 209.103317 985.68259 225.881856 1002.34496 242.544213 1002.51334 269.380992 985.583526 286.298197L490.409442 781.10464C456.996668 814.492587 402.85879 814.533717 369.833818 781.540907L183.19817 595.086848ZM170.242261 0C76.129847 0 0 76.220075 0 170.242261L0 853.757739C0 947.870165 76.220058 1024 170.242261 1024L853.757739 1024C947.870153 1024 1024 947.779925 1024 853.757739L1024 554.592853C1024 531.069483 1005.061769 512 981.333333 512 957.769186 512 938.666667 531.3536 938.666667 554.592853L938.666667 853.757739C938.666667 900.689792 900.703706 938.666667 853.757739 938.666667L170.242261 938.666667C123.310195 938.666667 85.333333 900.703701 85.333333 853.757739L85.333333 170.242261C85.333333 123.310208 123.296294 85.333333 170.242261 85.333333L639.859017 85.333333C663.50103 85.333333 682.666667 66.395093 682.666667 42.666667 682.666667 19.102507 663.204749 0 639.859017 0L170.242261 0Z" p-id="1224"></path></svg>