<?xml version="1.0" standalone="no"?><!DOCTYPE svg PUBLIC "-//W3C//DTD SVG 1.1//EN" "http://www.w3.org/Graphics/SVG/1.1/DTD/svg11.dtd"><svg t="1609745381788" class="icon" viewBox="0 0 1024 1024" version="1.1" xmlns="http://www.w3.org/2000/svg" p-id="33602" xmlns:xlink="http://www.w3.org/1999/xlink" width="200" height="200"><defs><style type="text/css"></style></defs><path d="M929.42 244.69H94.13c-16.52 0-29.91 13.39-29.91 29.91v477.24c0 16.52 13.39 29.91 29.91 29.91h835.29c16.52 0 29.91-13.39 29.91-29.91V274.6c0-16.52-13.39-29.91-29.91-29.91z m-9.87 497.29H104V284.47h815.55v457.51z" p-id="33603"></path><path d="M511.77 662.41c-16.48 0-29.84-13.36-29.84-29.84v-238.7c0-16.48 13.36-29.84 29.84-29.84s29.84 13.36 29.84 29.84v238.7c0 16.48-13.36 29.84-29.84 29.84zM730.58 364.04H630.52c-16.14 0-29.23 13.09-29.23 29.23v239.31c0 16.48 13.36 29.84 29.84 29.84s29.84-13.36 29.84-29.84v-49.73h69.62c60.42 0 109.4-48.98 109.4-109.4S791 364.04 730.58 364.04z m0 159.13h-69.62v-99.46h69.62c27.43 0 49.73 22.31 49.73 49.73s-22.3 49.73-49.73 49.73zM425.69 367.04c-15.17-6.44-32.69 0.64-39.12 15.81l-73.43 173-73.47-173.07c-6.44-15.17-23.96-22.25-39.12-15.81-15.17 6.44-22.25 23.96-15.81 39.12l100.89 237.68c0.32 0.75 0.78 1.39 1.15 2.1 0.51 0.98 0.97 1.96 1.58 2.88 0.45 0.67 0.99 1.24 1.49 1.87 0.73 0.93 1.44 1.86 2.28 2.7 0.46 0.46 0.99 0.83 1.48 1.25 0.99 0.87 1.99 1.73 3.11 2.47 0.37 0.24 0.78 0.41 1.15 0.63 1.17 0.7 2.32 1.43 3.61 1.98 15.17 6.44 32.68-0.64 39.12-15.81l100.9-237.68c6.43-15.17-0.64-32.69-15.81-39.12z" p-id="33604"></path></svg>