<?xml version="1.0" standalone="no"?><!DOCTYPE svg PUBLIC "-//W3C//DTD SVG 1.1//EN" "http://www.w3.org/Graphics/SVG/1.1/DTD/svg11.dtd"><svg t="1609745948502" class="icon" viewBox="0 0 1024 1024" version="1.1" xmlns="http://www.w3.org/2000/svg" p-id="1860" xmlns:xlink="http://www.w3.org/1999/xlink" width="200" height="200"><defs><style type="text/css"></style></defs><path d="M713.77654 624.857371c-8.778944 0-16.764825-5.90243-18.99154-14.744819l-31.755238-126.171608L614.594633 612.226702c-2.866281 7.594979-10.17678 12.624529-18.342764 12.624529-8.165983 0-15.476483-5.02955-18.342764-12.624529l-48.432059-128.285758L497.719762 610.111528c-2.62171 10.426467-13.251815 16.765849-23.756053 14.158465-10.497075-2.607384-16.876366-13.168927-14.254655-23.595394l47.01478-186.792267c2.080382-8.263198 9.331529-14.222933 17.891486-14.705933 8.540514-0.506537 16.442484 4.618181 19.456121 12.591783l52.18043 138.209782 52.18043-138.209782c3.010567-7.973602 10.884908-13.068643 19.456121-12.591783 8.56405 0.483001 15.812127 6.442736 17.891486 14.705933l47.01478 186.792267c2.62478 10.426467-3.75758 20.986987-14.254655 23.595394C716.946742 624.666012 715.347315 624.857371 713.77654 624.857371" p-id="1861"></path><path d="M799.993157 624.855324c-8.987698 0-16.824177-6.077416-19.004843-14.738679L733.973534 423.324378c-2.62171-10.426467 3.75758-20.98801 14.253632-23.595394 10.494005-2.600221 21.134343 3.731998 23.756053 14.158465l28.009937 111.283526 28.009937-111.283526c2.625804-10.422374 13.266142-16.758686 23.756053-14.158465 10.496052 2.607384 16.876366 13.169951 14.254655 23.595394l-47.01478 186.791244C816.817334 618.777909 808.981878 624.855324 799.993157 624.855324" p-id="1862"></path><path d="M947.043281 335.429539c-8.18952-4.551666-24.595164-8.275477-36.456307-8.275477L119.859855 327.154062c-11.861142 0-28.266787 3.723811-36.456307 8.275477-8.18952 4.551666-14.890128 38.398542-14.890128 50.259684L68.51342 638.310777c0 11.861142 3.000334 29.883611 6.66684 40.050158s32.818453 18.485003 44.679595 18.485003l790.727119 0c11.861142 0 28.266787-3.723811 36.456307-8.275477s14.890128-38.398542 14.890128-50.259684L961.933409 385.689223C961.934432 373.828081 955.233823 339.981205 947.043281 335.429539zM199.214181 610.200556c-9.156544 7.53972-16.648169 4.004197-16.648169-7.856945L182.566012 421.656389c0-11.861142 7.491625-15.396665 16.648169-7.856945l102.607936 84.492346c9.156544 7.53972 9.156544 19.877723 0 27.417443L199.214181 610.200556zM931.126776 644.472104c0 11.861142-9.705036 21.566178-21.565155 21.566178L428.962795 666.038282c-11.861142 0-21.565155-9.705036-21.565155-21.566178l0-264.944208c0-11.861142 9.705036-21.565155 21.565155-21.565155l480.597803 0c11.861142 0 21.565155 9.705036 21.565155 21.565155L931.125753 644.472104z" p-id="1863"></path></svg>