<?xml version="1.0" standalone="no"?><!DOCTYPE svg PUBLIC "-//W3C//DTD SVG 1.1//EN" "http://www.w3.org/Graphics/SVG/1.1/DTD/svg11.dtd"><svg t="1609745392302" class="icon" viewBox="0 0 1024 1024" version="1.1" xmlns="http://www.w3.org/2000/svg" p-id="33743" xmlns:xlink="http://www.w3.org/1999/xlink" width="200" height="200"><defs><style type="text/css"></style></defs><path d="M930.37 260.47H93.18c-16 0-28.97 12.97-28.97 28.97v445.57c0 16 12.97 28.97 28.97 28.97h837.19c16 0 28.97-12.97 28.97-28.97V289.44c-0.01-16-12.98-28.97-28.97-28.97z m-8.33 466.21H101.51V297.77h820.53v428.91z" p-id="33744"></path><path d="M247.58 451.39v153.66c8.58-8.58 17.53-17.9 26.85-28.35l9.32 37.3c-20.89 22.38-42.89 42.15-66.39 59.3l-13.43-31.7c5.97-5.22 9.32-11.19 9.32-18.28v-138h-49.6v-33.94h83.93z m24.62-52.97l-24.24 24.62c-14.17-17.53-33.94-36.18-58.56-55.57l24.62-24.24c23.12 18.27 42.51 36.54 58.18 55.19z m157.77 253.25c-11.93-23.5-20.51-54.45-25.73-92.5-4.48-32.82-7.46-72.73-8.95-120.47H280.03v-34.31h114.5c-0.75-20.89-0.75-42.89-0.75-65.27h34.31c0 23.12 0 44.76 0.75 65.27h71.24v34.31h-70.49c1.49 57.06 5.22 102.94 10.44 137.25 7.46 42.52 16.04 64.52 26.11 66.39 5.97-0.75 11.94-22.75 18.65-65.27l27.97 22.75c-13.43 54.08-28.72 81.31-46.62 81.31-13.42 0.01-25.73-10.06-36.17-29.46zM288.61 522.25v-33.19h98.84v33.19h-32.08V614c14.92-3.36 29.84-7.09 44.38-11.19V636c-32.45 8.95-67.13 16.78-104.06 23.12l-8.58-33.94c11.19-1.49 22.38-2.98 33.57-4.85v-98.09h-32.07z m207.37-138.37l-24.62 17.16c-8.95-14.17-21.26-29.84-36.18-46.99l24.24-15.29c15.68 17.14 27.61 32.44 36.56 45.12zM661.58 603.56h-74.22v24.99H552.3V369.7h109.28v233.86z m-34.69-33.57V403.27h-39.54v166.72h39.54z m243.55-195.81c-41.4 14.17-87.28 22.75-137.25 25.36v58.93h145.46v33.57h-53.71v193.2h-35.06v-193.2h-56.69v10.44c-2.61 75.34-23.87 135.39-63.78 180.52l-25.36-26.48c33.57-37.3 51.84-88.39 54.83-154.04V369.33c57.44-1.49 108.53-10.44 153.66-26.85l17.9 31.7z" p-id="33745"></path></svg>