<?xml version="1.0" standalone="no"?><!DOCTYPE svg PUBLIC "-//W3C//DTD SVG 1.1//EN" "http://www.w3.org/Graphics/SVG/1.1/DTD/svg11.dtd"><svg t="1609153021424" class="icon" viewBox="0 0 1024 1024" version="1.1" xmlns="http://www.w3.org/2000/svg" p-id="4396" xmlns:xlink="http://www.w3.org/1999/xlink" width="200" height="200"><defs><style type="text/css"></style></defs><path d="M490.666667 61.44L170.666667 220.16v408.32a364.373333 364.373333 0 0 0 128 190.72 590.933333 590.933333 0 0 0 187.306666 97.28h11.946667A590.933333 590.933333 0 0 0 682.666667 819.2a364.373333 364.373333 0 0 0 128-190.72V220.16zM768 619.093333a320.853333 320.853333 0 0 1-110.08 165.973334 546.133333 546.133333 0 0 1-167.253333 88.746666 546.133333 546.133333 0 0 1-167.253334-88.746666A320.853333 320.853333 0 0 1 213.333333 619.093333V246.613333l277.333334-137.386666L768 246.613333z" fill="#979797" p-id="4397"></path><path d="M379.306667 454.4l-30.293334 29.866667 121.6 121.6 194.56-194.56-30.293333-30.293334-164.266667 164.693334-91.306666-91.306667z" fill="#979797" p-id="4398"></path></svg>