<?xml version="1.0" standalone="no"?><!DOCTYPE svg PUBLIC "-//W3C//DTD SVG 1.1//EN" "http://www.w3.org/Graphics/SVG/1.1/DTD/svg11.dtd"><svg t="1610356385438" class="icon" viewBox="0 0 1143 1024" version="1.1" xmlns="http://www.w3.org/2000/svg" p-id="6432" xmlns:xlink="http://www.w3.org/1999/xlink" width="223.2421875" height="200"><defs><style type="text/css"></style></defs><path d="M979.307 425.461c-5.504 0-10.852-0.64-16.061-1.627l-53.169 399.704h-692.307l-55.886-399.427c-4.379 0.693-8.775 1.35-13.344 1.35-47.786 0-86.539-38.752-86.539-86.539 0-47.804 38.752-86.539 86.539-86.539 47.786 0 86.539 38.735 86.539 86.539 0 18.779-6.144 36.052-16.304 50.227l168.906 93.946 141.785-255.236c-30.618-13.327-52.079-43.789-52.079-79.321 0-47.804 38.752-86.539 86.539-86.539 47.786 0 86.539 38.735 86.539 86.539 0 35.532-21.461 65.994-52.079 79.321l140.729 253.332 168.836-93.41c-9.554-13.898-15.179-30.704-15.179-48.86 0-47.804 38.752-86.539 86.539-86.539 47.786 0 86.539 38.735 86.539 86.539 0 47.786-38.752 86.539-86.539 86.539zM148.539 287c-28.627 0-51.923 23.296-51.923 51.923s23.296 51.923 51.923 51.923c2.943 0 5.764-0.398 8.568-0.865l-5.331-38.077 36.346 20.215c7.581-9.035 12.34-20.51 12.34-33.196 0-28.627-23.296-51.923-51.923-51.923zM615.846 148.539c0-28.627-23.296-51.923-51.923-51.923s-51.923 23.296-51.923 51.923c0 22.482 14.452 41.486 34.494 48.686l17.429-31.379 17.429 31.379c20.043-7.2 34.494-26.204 34.494-48.686zM725.646 528.2l-161.723-291.081-162.796 293.054-205.425-114.248 52.182 372.998h631.869l49.69-373.465-203.798 112.743zM979.307 287c-28.627 0-51.923 23.296-51.923 51.923 0 12.081 4.31 23.054 11.25 31.881l34.182-18.9-5.002 37.557c3.721 0.848 7.529 1.385 11.493 1.385 28.627 0 51.923-23.296 51.923-51.923 0-28.627-23.296-51.923-51.923-51.923zM910.077 962h-692.307v-103.846h692.307v103.846zM875.461 892.769h-623.077v34.615h623.077v-34.615z" p-id="6433"></path></svg>