<?xml version="1.0" standalone="no"?><!DOCTYPE svg PUBLIC "-//W3C//DTD SVG 1.1//EN" "http://www.w3.org/Graphics/SVG/1.1/DTD/svg11.dtd"><svg t="1609679618604" class="icon" viewBox="0 0 1024 1024" version="1.1" xmlns="http://www.w3.org/2000/svg" p-id="5249" xmlns:xlink="http://www.w3.org/1999/xlink" width="200" height="200"><defs><style type="text/css"></style></defs><path d="M960 544v364.8c0 12.8-9.6 19.2-19.2 19.2H83.2c-9.6 0-19.2-9.6-19.2-19.2V544c0-19.2-12.8-32-32-32s-32 12.8-32 32v364.8C0 953.6 38.4 992 83.2 992h854.4c48 0 83.2-38.4 83.2-83.2V544c0-19.2-12.8-32-32-32-16 0-28.8 12.8-28.8 32z" p-id="5250"></path><path d="M761.6 457.6c-12.8-12.8-32-12.8-44.8 0L544 630.4V96c0-16-16-32-32-32s-32 16-32 32v534.4l-172.8-172.8c-12.8-12.8-32-12.8-44.8 0-12.8 12.8-12.8 32 0 44.8l227.2 227.2c12.8 12.8 32 12.8 44.8 0l227.2-227.2c12.8-12.8 12.8-32 0-44.8z" p-id="5251"></path></svg>