<?xml version="1.0" standalone="no"?><!DOCTYPE svg PUBLIC "-//W3C//DTD SVG 1.1//EN" "http://www.w3.org/Graphics/SVG/1.1/DTD/svg11.dtd"><svg t="1609658149189" class="icon" viewBox="0 0 1024 1024" version="1.1" xmlns="http://www.w3.org/2000/svg" p-id="1616" xmlns:xlink="http://www.w3.org/1999/xlink" width="200" height="200"><defs><style type="text/css"></style></defs><path d="M482.986667 5.12c3.413333-3.413333 8.533333-5.12 13.653333-5.12h35.84c10.24 0 17.066667 8.533333 17.066667 17.066667v397.653333c0 10.24 3.413333 20.48 10.24 25.6 15.36 13.653333 35.84 13.653333 49.493333 0l145.066667-145.066667c6.826667-6.826667 18.773333-6.826667 25.6 0l25.6 25.6c6.826667 6.826667 6.826667 18.773333 0 25.6L523.946667 626.346667c-6.826667 6.826667-18.773333 6.826667-25.6 0L220.16 348.16c-6.826667-6.826667-6.826667-18.773333 0-25.6l25.6-25.6c6.826667-6.826667 18.773333-6.826667 25.6 0l146.773333 146.773333c11.946667 11.946667 29.013333 15.36 44.373334 6.826667 11.946667-6.826667 18.773333-18.773333 18.773333-30.72V17.066667c-3.413333-3.413333-1.706667-8.533333 1.706667-11.946667z" fill="#656565" p-id="1617"></path><path d="M575.146667 1017.173333h-126.293334C208.213333 1017.173333 11.946667 826.026667 3.413333 588.8c0-10.24 6.826667-17.066667 17.066667-17.066667h35.84c8.533333 0 17.066667 6.826667 17.066667 17.066667 8.533333 199.68 174.08 358.4 375.466666 358.4h126.293334c201.386667 0 365.226667-158.72 375.466666-358.4 0-8.533333 8.533333-17.066667 17.066667-17.066667h35.84c10.24 0 17.066667 8.533333 17.066667 17.066667-8.533333 238.933333-204.8 428.373333-445.44 428.373333z" fill="#656565" p-id="1618"></path></svg>