<?xml version="1.0" standalone="no"?><!DOCTYPE svg PUBLIC "-//W3C//DTD SVG 1.1//EN" "http://www.w3.org/Graphics/SVG/1.1/DTD/svg11.dtd"><svg t="1609382617248" class="icon" viewBox="0 0 1144 1024" version="1.1" xmlns="http://www.w3.org/2000/svg" p-id="5022" xmlns:xlink="http://www.w3.org/1999/xlink" width="223.4375" height="200"><defs><style type="text/css"></style></defs><path d="M572.254058 1023.99984a29.165567 29.165567 0 0 1-14.582784-3.846009 1647.534014 1647.534014 0 0 1-323.545489-245.824062 30.127069 30.127069 0 1 1 42.466347-42.786847 1634.553735 1634.553735 0 0 0 295.661926 227.555519 1631.508978 1631.508978 0 0 0 295.661925-227.555519 30.127069 30.127069 0 1 1 42.306097 42.786847 1648.976268 1648.976268 0 0 1-323.385239 245.824062 29.165567 29.165567 0 0 1-14.582783 3.846009zM77.080426 542.126989a30.287319 30.287319 0 0 1-27.402812-17.30704 489.564869 489.564869 0 0 1-49.677614-208.325476A316.494473 316.494473 0 0 1 316.173972 0a304.475696 304.475696 0 0 1 176.275403 62.337392 331.237507 331.237507 0 0 1 80.125183 81.887938 331.237507 331.237507 0 0 1 80.125183-81.887938A304.475696 304.475696 0 0 1 828.334143 0a316.494473 316.494473 0 0 1 316.173972 316.173972 489.885369 489.885369 0 0 1-49.837864 208.325476 30.127069 30.127069 0 0 1-54.485124-25.640058 427.708227 427.708227 0 0 0 44.06885-182.845668 256.400586 256.400586 0 0 0-256.400585-256.400586c-102.720485 0-202.235962 84.451943-227.55552 160.250366a29.966818 29.966818 0 0 1-57.049131 0c-25.319558-75.638173-124.835035-160.250366-227.55552-160.250366a256.400586 256.400586 0 0 0-256.400586 256.400586 427.708227 427.708227 0 0 0 45.030353 183.166169 30.127069 30.127069 0 0 1-14.582783 40.062591 29.806568 29.806568 0 0 1-12.659779 2.884507z m556.389271 240.375549h-0.801251c-12.179028 0-34.293578-6.570265-45.350854-46.152106L513.922924 475.943587 464.726062 673.051538c-9.615022 38.780589-32.050073 46.953357-44.068851 48.07511s-35.575581-1.602504-53.523622-37.338336l-36.537084-72.913916a28.204064 28.204064 0 0 0-4.48701-7.051016 149.834092 149.834092 0 0 1-115.220013 57.369631H150.635344a30.127069 30.127069 0 1 1 0-60.093888h60.254138a91.502959 91.502959 0 0 0 65.382149-31.088571 60.254138 60.254138 0 0 1 53.683873-28.845065 68.907657 68.907657 0 0 1 54.645375 43.267598l26.761811 53.523623 56.408129-228.997774c9.454772-38.620338 29.005316-46.953357 43.74835-47.273858s34.453829 7.531767 45.190603 45.831605l77.400927 275.63063L705.101611 465.847814c12.339278-37.819086 34.93458-44.389351 48.07511-44.870102s35.575581 4.006259 50.959616 40.703593l43.5881 103.521736a69.067908 69.067908 0 0 0 55.927378 37.178085H993.55227a30.127069 30.127069 0 0 1 0 60.254138h-89.900455a128.200293 128.200293 0 0 1-112.175257-74.035669l-35.735831-84.612193-75.958674 234.927036c-12.339278 38.139587-33.973078 44.068851-46.312356 44.068851z" p-id="5023"></path></svg>