<?xml version="1.0" standalone="no"?><!DOCTYPE svg PUBLIC "-//W3C//DTD SVG 1.1//EN" "http://www.w3.org/Graphics/SVG/1.1/DTD/svg11.dtd"><svg t="1609382025926" class="icon" viewBox="0 0 1462 1024" version="1.1" xmlns="http://www.w3.org/2000/svg" p-id="36763" xmlns:xlink="http://www.w3.org/1999/xlink" width="285.546875" height="200"><defs><style type="text/css"></style></defs><path d="M1462.857143 646.582857c0-208.091429-163.620571-377.344-364.690286-377.344-14.701714 0-29.110857 1.170286-43.300571 2.925714C1002.276571 112.054857 855.04 0 688.420571 0c-213.577143 0-387.218286 179.712-387.218285 400.676571C135.094857 400.676571 0 540.525714 0 712.411429S135.094857 1024 301.202286 1024h817.444571v-1.097143C1310.208 1011.858286 1462.857143 847.506286 1462.857143 646.582857zM1098.166857 950.857143H301.202286C182.564571 950.857143 70.217143 835.072 70.217143 712.411429c0-122.806857 112.347429-238.445714 230.985143-238.445715l69.632 1.462857V400.676571C370.834286 228.937143 522.24 73.142857 688.420571 73.142857c126.976 0 255.414857 99.84 298.276572 220.452572-138.24 53.613714-253.220571 191.414857-253.220572 352.987428h69.632c0-158.939429 141.458286-304.274286 295.058286-304.274286 153.6 0 294.473143 145.334857 294.473143 304.274286 0 159.012571-140.873143 304.274286-294.473143 304.274286z" p-id="36764"></path></svg>