<?xml version="1.0" standalone="no"?><!DOCTYPE svg PUBLIC "-//W3C//DTD SVG 1.1//EN" "http://www.w3.org/Graphics/SVG/1.1/DTD/svg11.dtd"><svg t="1609924082049" class="icon" viewBox="0 0 1024 1024" version="1.1" xmlns="http://www.w3.org/2000/svg" p-id="5086" xmlns:xlink="http://www.w3.org/1999/xlink" width="200" height="200"><defs><style type="text/css"></style></defs><path d="M982.471111 406.158222a127.203556 127.203556 0 0 0-79.559111-57.144889 128.256 128.256 0 0 0-29.212444-3.384889h-173.169778c19.712-97.336889 18.147556-168.874667-4.664889-217.713777C662.186667 55.665778 610.076444 14.222222 552.903111 14.222222c-29.041778 0-57.144889 10.723556-83.512889 31.857778-50.773333 40.675556-60.017778 105.472-68.181333 162.645333-5.233778 36.664889-10.183111 71.281778-24.376889 94.549334-19.968 32.711111-51.911111 60.330667-94.805333 82.602666A41.642667 41.642667 0 0 0 270.222222 384H128C73.102222 384 28.444444 428.657778 28.444444 483.555556v426.666666c0 54.897778 44.657778 99.555556 99.555556 99.555556h132.949333c1.592889 0 3.100444-0.312889 4.636445-0.455111 1.536 0.142222 3.043556 0.455111 4.636444 0.455111h440.177778a212.451556 212.451556 0 0 0 207.701333-164.664889l80.213334-342.300445a127.089778 127.089778 0 0 0-15.843556-96.654222zM113.777778 910.222222V483.555556a14.222222 14.222222 0 0 1 14.222222-14.222223h99.555556v455.111111H128a14.222222 14.222222 0 0 1-14.222222-14.222222z m801.479111-426.865778l-80.213333 342.328889a127.488 127.488 0 0 1-124.643556 98.787556H312.888889V466.062222c61.212444-30.122667 107.150222-69.831111 136.760889-118.328889 23.381333-38.257778 29.809778-83.342222 36.039111-126.947555 6.513778-45.539556 12.657778-88.547556 37.063111-108.117334 10.837333-8.704 20.963556-13.084444 30.151111-13.084444 21.646222 0 47.388444 25.287111 65.649778 64.398222 12.288 26.282667 19.968 84.736-12.913778 213.788445a42.723556 42.723556 0 0 0 41.358222 53.219555h226.759111a42.325333 42.325333 0 0 1 36.266667 20.167111c5.944889 9.671111 7.822222 21.105778 5.233778 32.199111z" p-id="5087"></path></svg>